<svg xmlns="http://www.w3.org/2000/svg" width="29.25" height="20.25" viewBox="0 0 29.25 20.25">
  <g id="Icon_ionic-ios-mail" data-name="Icon ionic-ios-mail" transform="translate(-3.375 -7.875)">
    <path id="Path_6" data-name="Path 6" d="M32.386,10.357,24.82,18.063a.136.136,0,0,0,0,.2L30.115,23.9a.912.912,0,0,1,0,1.294.917.917,0,0,1-1.294,0l-5.273-5.618a.144.144,0,0,0-.2,0l-1.287,1.308a5.661,5.661,0,0,1-4.036,1.7,5.775,5.775,0,0,1-4.12-1.751l-1.238-1.259a.144.144,0,0,0-.2,0L7.186,25.193a.917.917,0,0,1-1.294,0,.912.912,0,0,1,0-1.294l5.295-5.639a.15.15,0,0,0,0-.2L3.614,10.357a.139.139,0,0,0-.239.1v15.42a2.257,2.257,0,0,0,2.25,2.25h24.75a2.257,2.257,0,0,0,2.25-2.25V10.455A.141.141,0,0,0,32.386,10.357Z"/>
    <path id="Path_7" data-name="Path 7" d="M18,20.749A3.823,3.823,0,0,0,20.749,19.6L31.781,8.367a2.21,2.21,0,0,0-1.392-.492H5.618a2.2,2.2,0,0,0-1.392.492L15.258,19.6A3.823,3.823,0,0,0,18,20.749Z"/>
  </g>
</svg>
